<svg xmlns="http://www.w3.org/2000/svg" viewBox="0 0 512 512">
  <defs>
    <linearGradient id="bg" x1="0" y1="0" x2="1" y2="1">
      <stop offset="0%" stop-color="#123225"/>
      <stop offset="100%" stop-color="#07110d"/>
    </linearGradient>
    <linearGradient id="head" x1="0" y1="0" x2="0" y2="1">
      <stop offset="0%" stop-color="#d7ff7b"/>
      <stop offset="50%" stop-color="#54ce78"/>
      <stop offset="100%" stop-color="#1f5a3f"/>
    </linearGradient>
  </defs>
  <rect width="512" height="512" rx="72" fill="url(#bg)"/>
  <g fill="none" stroke="#97ff71" stroke-opacity="0.22" stroke-width="10">
    <circle cx="256" cy="256" r="190"/>
    <circle cx="256" cy="256" r="148"/>
  </g>

  <g transform="translate(0 12)">
    <ellipse cx="256" cy="336" rx="122" ry="92" fill="#163a2a"/>

    <g transform="translate(116 118)">
      <g>
        <ellipse cx="50" cy="92" rx="43" ry="47" fill="url(#head)"/>
        <circle cx="37" cy="87" r="5" fill="#f7ffd7"/>
        <circle cx="63" cy="87" r="5" fill="#f7ffd7"/>
      </g>
      <g>
        <ellipse cx="110" cy="56" rx="43" ry="47" fill="url(#head)"/>
        <circle cx="97" cy="51" r="5" fill="#f7ffd7"/>
        <circle cx="123" cy="51" r="5" fill="#f7ffd7"/>
      </g>
      <g>
        <ellipse cx="180" cy="78" rx="43" ry="47" fill="url(#head)"/>
        <circle cx="167" cy="73" r="5" fill="#f7ffd7"/>
        <circle cx="193" cy="73" r="5" fill="#f7ffd7"/>
      </g>
      <g>
        <ellipse cx="244" cy="58" rx="43" ry="47" fill="url(#head)"/>
        <circle cx="231" cy="53" r="5" fill="#f7ffd7"/>
        <circle cx="257" cy="53" r="5" fill="#f7ffd7"/>
      </g>
      <g>
        <ellipse cx="304" cy="96" rx="43" ry="47" fill="url(#head)"/>
        <circle cx="291" cy="91" r="5" fill="#f7ffd7"/>
        <circle cx="317" cy="91" r="5" fill="#f7ffd7"/>
      </g>
    </g>
  </g>
</svg>
